HIERARCHY
ROOT SpineBase
{
  OFFSET 0.000000 0.000000 0.000000
  CHANNELS 6 Xposition Yposition Zposition Zrotation Xrotation Yrotation
  JOINT SpineMid
  {
    OFFSET 0.000000 25.970381 0.000000
    CHANNELS 3 Zrotation Xrotation Yrotation
    JOINT SpineShoulder
    {
      OFFSET -0.267357 19.358822 -0.588557
      CHANNELS 3 Zrotation Xrotation Yrotation
      JOINT Neck
      {
        OFFSET -0.061648 6.465696 -0.468677
        CHANNELS 3 Zrotation Xrotation Yrotation
        JOINT Head
        {
          OFFSET -3.073278 11.429382 1.032463
          CHANNELS 3 Zrotation Xrotation Yrotation
          End Site
          {
            OFFSET 0 0 0
          }
        }
      }
      JOINT ShoulderLeft
      {
        OFFSET -13.528022 -3.273849 4.146633
        CHANNELS 3 Zrotation Xrotation Yrotation
        JOINT ElbowLeft
        {
          OFFSET -0.791836 -21.927082 2.156912
          CHANNELS 3 Zrotation Xrotation Yrotation
          JOINT WristLeft
          {
            OFFSET -1.476603 -20.694065 -4.602076
            CHANNELS 3 Zrotation Xrotation Yrotation
            JOINT HandLeft
            {
              OFFSET 0.688552 -6.716071 -1.818093
              CHANNELS 3 Zrotation Xrotation Yrotation
              JOINT HandTipLeft
              {
                OFFSET -0.544239 -6.267212 -2.328151
                CHANNELS 3 Zrotation Xrotation Yrotation
                End Site
                {
                  OFFSET 0 0 0
                }
              }
              JOINT ThumbLeft
              {
                OFFSET 3.003863 1.445246 -2.891990
                CHANNELS 3 Zrotation Xrotation Yrotation
                End Site
                {
                  OFFSET 0 0 0
                }
              }
            }
          }
        }
      }
      JOINT ShoulderRight
      {
        OFFSET 11.720049 -1.873948 -5.736592
        CHANNELS 3 Zrotation Xrotation Yrotation
        JOINT ElbowRight
        {
          OFFSET 3.888434 -20.886487 -2.743597
          CHANNELS 3 Zrotation Xrotation Yrotation
          JOINT WristRight
          {
            OFFSET -0.632738 -18.580200 -6.602999
            CHANNELS 3 Zrotation Xrotation Yrotation
            JOINT HandRight
            {
              OFFSET -1.054644 -7.314333 -0.412267
              CHANNELS 3 Zrotation Xrotation Yrotation
              JOINT HandTipRight
              {
                OFFSET -0.163834 -5.491832 -2.722254
                CHANNELS 3 Zrotation Xrotation Yrotation
                End Site
                {
                  OFFSET 0 0 0
                }
              }
              JOINT ThumbRight
              {
                OFFSET 1.473297 1.387783 -2.379857
                CHANNELS 3 Zrotation Xrotation Yrotation
                End Site
                {
                  OFFSET 0 0 0
                }
              }
            }
          }
        }
      }
    }
  }
  JOINT HipLeft
  {
    OFFSET -5.804331 0.333337 -1.232277
    CHANNELS 3 Zrotation Xrotation Yrotation
    JOINT KneeLeft
    {
      OFFSET 5.683625 -35.290691 2.463487
      CHANNELS 3 Zrotation Xrotation Yrotation
      JOINT AnkleLeft
      {
        OFFSET 6.249075 -32.828031 3.967257
        CHANNELS 3 Zrotation Xrotation Yrotation
        JOINT FootLeft
        {
          OFFSET -3.197943 -2.889627 -11.325127
          CHANNELS 3 Zrotation Xrotation Yrotation
          End Site
          {
            OFFSET 0 0 0
          }
        }
      }
    }
  }
  JOINT HipRight
  {
    OFFSET 5.397917 1.216497 -4.678974
    CHANNELS 3 Zrotation Xrotation Yrotation
    JOINT KneeRight
    {
      OFFSET 6.640689 -31.034715 -1.444545
      CHANNELS 3 Zrotation Xrotation Yrotation
      JOINT AnkleRight
      {
        OFFSET 3.504261 -34.667195 6.462980
        CHANNELS 3 Zrotation Xrotation Yrotation
        JOINT FootRight
        {
          OFFSET -3.281682 -3.053583 -10.908869
          CHANNELS 3 Zrotation Xrotation Yrotation
          End Site
          {
            OFFSET 0 0 0
          }
        }
      }
    }
  }
}
MOTION
Frames: 15
Frame Time: 0.033333
25.703273 74.247103 368.782920 3.566799 -0.340894 14.932770 -0.247199 -0.387251 -14.815529 0.398794 -0.511594 0.185848 -7.225096 -1.262148 -0.611673 0.000000 0.000000 0.000000 -17.243518 16.995480 0.049885 83.826640 45.467719 -40.536299 49.346473 1.833636 35.161330 -39.014987 -17.181992 -5.370831 0.000000 0.000000 0.000000 0.000000 0.000000 0.000000 4.549525 17.519678 0.330602 -73.530893 -5.270284 8.276462 -18.022901 41.211698 5.100268 20.439714 -7.429807 34.716121 0.000000 0.000000 0.000000 0.000000 0.000000 0.000000 -5.614806 0.528647 -15.195723 0.923648 1.708828 0.304083 1.058394 -1.080633 0.804432 0.000000 0.000000 0.000000 -5.996780 0.216052 -15.104917 1.700971 3.143988 0.285559 0.569453 -1.463677 -0.034424 0.000000 0.000000 0.000000
25.692762 74.231004 368.868929 3.609922 -0.629412 14.931228 -0.251937 -0.469248 -14.805302 0.375714 -0.506487 0.187187 -6.804008 -0.659812 -0.548860 0.000000 0.000000 0.000000 -17.321387 17.065493 0.129387 85.477291 45.322308 -41.738015 44.599393 1.205336 32.925574 -32.954979 -23.079375 -1.776901 0.000000 0.000000 0.000000 0.000000 0.000000 0.000000 4.711987 17.836485 0.229691 -73.538642 -5.992572 7.850102 -16.453700 43.646344 6.484987 20.491266 -9.702430 33.277652 0.000000 0.000000 0.000000 0.000000 0.000000 0.000000 -5.473671 0.853004 -15.150237 0.795377 1.675781 0.291125 1.114077 -1.214678 0.832653 0.000000 0.000000 0.000000 -5.930614 0.516037 -15.070189 1.896336 3.196609 0.323366 1.070431 -6.504326 3.220594 0.000000 0.000000 0.000000
25.682832 74.215911 368.940197 3.631148 -0.908954 14.875375 -0.307684 -0.548479 -14.742892 0.332088 -0.471235 0.183289 -6.018106 -0.313477 -0.585945 0.000000 0.000000 0.000000 -17.315208 16.981188 0.196139 87.289118 45.120037 -43.094496 41.418931 -0.344649 32.406890 -31.576091 -23.918665 -1.486669 0.000000 0.000000 0.000000 0.000000 0.000000 0.000000 4.935366 18.186970 0.151171 -73.622284 -6.813425 7.330340 -18.536995 42.958551 7.134896 23.027351 -14.457818 31.393968 0.000000 0.000000 0.000000 0.000000 0.000000 0.000000 -5.295585 0.991694 -15.077747 0.500988 1.793015 0.289436 1.285449 -1.322427 0.803016 0.000000 0.000000 0.000000 -5.858805 0.787812 -14.985432 2.159751 3.279750 0.373028 1.177433 -8.758596 4.690781 0.000000 0.000000 0.000000
25.673690 74.199413 369.007877 3.631411 -1.186005 14.770288 -0.390757 -0.618461 -14.632805 0.293880 -0.433162 0.177643 -5.100850 -0.081889 -0.669887 0.000000 0.000000 0.000000 -17.294282 16.959641 0.271050 86.550292 44.601825 -42.286730 39.931264 0.469043 30.029410 -34.204474 -27.260142 -0.859766 0.000000 0.000000 0.000000 0.000000 0.000000 0.000000 5.221321 18.448572 0.059537 -73.884267 -7.373992 7.071381 -22.116613 41.261970 7.612235 50.433331 13.150323 35.296375 0.000000 0.000000 0.000000 0.000000 0.000000 0.000000 -5.252548 1.474144 -14.915352 0.658097 1.437862 0.237075 1.237190 -1.268075 0.826177 0.000000 0.000000 0.000000 -5.776851 1.044585 -14.853695 2.274758 3.352074 0.399058 3.245948 -16.712471 9.371678 0.000000 0.000000 0.000000
25.674996 74.188995 369.070511 3.646630 -1.440189 14.686914 -0.469868 -0.662922 -14.544325 0.284450 -0.391451 0.174325 -4.265294 -0.142447 -0.828661 0.000000 0.000000 0.000000 -17.439731 16.588797 0.312086 88.948701 44.453080 -44.122913 36.132947 -1.045408 29.202875 -29.737091 -27.081539 -0.710921 0.000000 0.000000 0.000000 0.000000 0.000000 0.000000 5.416499 18.614539 -0.019844 -74.157222 -7.939435 6.859122 -30.145806 35.559908 6.502636 43.161168 20.908844 40.944354 0.000000 0.000000 0.000000 0.000000 0.000000 0.000000 -5.180003 1.837589 -14.788201 0.771507 1.444806 0.253895 0.349369 0.285884 1.887435 0.000000 0.000000 0.000000 -5.735691 1.278099 -14.746779 2.192405 3.395005 0.391530 4.215894 -19.234805 10.962631 0.000000 0.000000 0.000000
25.677904 74.175943 369.133433 3.683595 -1.696685 14.533448 -0.519406 -0.735710 -14.383301 0.291332 -0.379994 0.175219 -3.742324 -0.092760 -0.948936 0.000000 0.000000 0.000000 -17.591803 16.365184 0.367917 93.361238 44.345709 -47.597872 30.352981 -3.097071 28.240666 -22.145064 -30.545353 2.907109 0.000000 0.000000 0.000000 0.000000 0.000000 0.000000 5.294453 18.905331 -0.025233 -74.850976 -8.547476 6.675536 -39.202145 24.805010 -0.122836 28.953720 15.084343 47.940399 0.000000 0.000000 0.000000 0.000000 0.000000 0.000000 -5.234949 2.175079 -14.601389 1.033892 1.412199 0.272426 1.258941 -2.043462 0.278143 0.000000 0.000000 0.000000 -5.839597 1.451927 -14.580149 2.005732 3.431275 0.356239 4.580072 -19.229146 10.843363 0.000000 0.000000 0.000000
25.679409 74.160523 369.223883 3.715730 -1.968979 14.424324 -0.528050 -0.724043 -14.267030 0.310458 -0.381135 0.177500 -3.389421 -0.193899 -1.082781 0.000000 0.000000 0.000000 -17.745128 16.055400 0.400380 99.253676 44.253082 -52.514804 26.100680 -7.055463 29.773641 -14.617918 -31.335318 6.325819 0.000000 0.000000 0.000000 0.000000 0.000000 0.000000 5.044686 19.095459 0.004227 -75.621958 -9.060956 6.608218 -46.795971 10.393268 -13.963565 28.727909 26.685688 53.602010 0.000000 0.000000 0.000000 0.000000 0.000000 0.000000 -5.255420 2.511494 -14.458109 1.434150 1.453269 0.320377 1.806829 -4.110787 -1.186314 0.000000 0.000000 0.000000 -5.666327 1.896021 -14.402581 1.336601 3.025056 0.213477 4.409682 -16.618658 9.013919 0.000000 0.000000 0.000000
25.682637 74.146693 369.313806 3.783109 -2.232808 14.359148 -0.501904 -0.732628 -14.191898 0.337996 -0.391906 0.183717 -3.424062 -0.249393 -1.176692 0.000000 0.000000 0.000000 -17.935055 15.779528 0.431748 107.679211 43.522738 -59.489151 20.497931 -11.681390 31.111465 -4.302608 -29.855359 8.728591 0.000000 0.000000 0.000000 0.000000 0.000000 0.000000 4.719416 19.227653 0.020680 -76.584179 -9.336288 6.786134 -50.044184 -0.057888 -26.662990 23.589187 28.839589 56.607903 0.000000 0.000000 0.000000 0.000000 0.000000 0.000000 -5.321974 2.790288 -14.367022 1.779851 1.624577 0.385580 1.373634 -3.683499 -1.331073 0.000000 0.000000 0.000000 -5.473821 2.279365 -14.287204 0.623655 2.730519 0.090472 3.701371 -11.921187 5.914496 0.000000 0.000000 0.000000
25.684204 74.130092 369.394709 3.876223 -2.469732 14.355250 -0.463819 -0.740478 -14.176801 0.362977 -0.395918 0.191238 -3.544808 -0.345567 -1.268286 0.000000 0.000000 0.000000 -18.105590 15.546949 0.454664 114.444963 42.509562 -65.259042 14.951338 -15.892528 31.144377 4.250735 -30.352952 12.314635 0.000000 0.000000 0.000000 0.000000 0.000000 0.000000 4.433181 19.339556 0.019009 -77.421539 -9.556659 6.946111 -62.334359 -17.618155 -54.961923 5.438557 55.842391 80.032383 0.000000 0.000000 0.000000 0.000000 0.000000 0.000000 -5.392330 2.998102 -14.344553 1.896487 1.815400 0.430555 1.878156 -5.303372 -2.260383 0.000000 0.000000 0.000000 -5.282458 2.575799 -14.254292 -0.129256 2.616711 -0.004970 2.940384 -5.837965 2.176716 0.000000 0.000000 0.000000
25.687752 74.116781 369.458075 3.990676 -2.656605 14.427295 -0.415014 -0.767395 -14.236806 0.383908 -0.396168 0.200066 -3.882107 -0.529946 -1.354290 0.000000 0.000000 0.000000 -18.162236 15.305882 0.457857 119.370846 41.495889 -69.748583 10.207537 -20.014213 30.777374 9.177895 -31.159316 14.706389 0.000000 0.000000 0.000000 0.000000 0.000000 0.000000 4.212705 19.411150 -0.011674 -78.011035 -9.649623 7.128893 -66.232621 -21.763474 -64.419233 -8.439542 61.339178 94.290746 0.000000 0.000000 0.000000 0.000000 0.000000 0.000000 -5.439851 3.144473 -14.401631 1.750649 1.879641 0.427207 3.183457 -8.523038 -3.968345 0.000000 0.000000 0.000000 -5.299962 2.591773 -14.351034 -0.607499 2.877945 -0.004609 2.334435 0.720910 -1.683834 0.000000 0.000000 0.000000
25.687808 74.103771 369.493588 4.103451 -2.834129 14.606511 -0.416542 -0.839908 -14.403527 0.385174 -0.385199 0.205989 -4.009372 -0.563941 -1.423157 0.000000 0.000000 0.000000 -18.370599 14.591098 0.443880 121.122545 41.487202 -72.282805 8.766481 -21.860702 30.656202 9.927050 -31.324588 14.556202 0.000000 0.000000 0.000000 0.000000 0.000000 0.000000 4.248523 19.518482 -0.108300 -78.509842 -9.668464 7.309316 -66.981778 -21.800012 -65.584217 -8.707197 63.311853 94.615960 0.000000 0.000000 0.000000 0.000000 0.000000 0.000000 -5.435809 3.268049 -14.567661 1.647783 2.022898 0.444704 4.952338 -12.570456 -8.858139 0.000000 0.000000 0.000000 -5.010260 2.901136 -14.500699 -1.079795 2.684120 -0.055890 2.469755 1.082359 -1.894873 0.000000 0.000000 0.000000
25.684719 74.090372 369.529039 4.223951 -3.019994 14.632611 -0.408425 -0.859910 -14.416994 0.381328 -0.352699 0.211085 -4.136060 -0.624399 -1.483095 0.000000 0.000000 0.000000 -18.570529 14.089104 0.434813 121.026975 41.725014 -72.872224 8.404962 -23.452192 30.814441 8.993612 -33.238973 15.615796 0.000000 0.000000 0.000000 0.000000 0.000000 0.000000 4.284989 19.436938 -0.211245 -79.170049 -9.646914 7.670904 -62.260266 -17.118568 -56.021881 10.576294 58.665986 74.557570 0.000000 0.000000 0.000000 0.000000 0.000000 0.000000 -5.379212 3.336396 -14.584474 1.242602 2.080165 0.419024 7.464435 -22.323081 -9.411297 0.000000 0.000000 0.000000 -4.806851 3.242885 -14.486402 -1.369889 2.422170 -0.108700 2.951488 -1.516665 -0.626405 0.000000 0.000000 0.000000
25.681523 74.082582 369.547797 4.324774 -3.173084 14.694139 -0.442403 -0.857925 -14.468258 0.359220 -0.303418 0.211951 -3.977223 -0.903194 -1.608790 0.000000 0.000000 0.000000 -18.730029 13.648172 0.423911 117.450097 42.880560 -70.514557 11.909356 -21.942240 31.770620 -0.496869 -33.512329 11.529617 0.000000 0.000000 0.000000 0.000000 0.000000 0.000000 4.584579 19.355881 -0.357884 -79.280465 -9.748332 7.750164 -63.073022 -17.878122 -57.301246 11.714204 62.062249 72.899878 0.000000 0.000000 0.000000 0.000000 0.000000 0.000000 -5.288988 3.367729 -14.640816 0.681615 2.034947 0.360489 9.483341 -28.881288 -8.296540 0.000000 0.000000 0.000000 -4.702894 3.509586 -14.516435 -1.511563 2.248108 -0.140491 2.669475 0.938581 -2.054949 0.000000 0.000000 0.000000
25.673132 74.077532 369.565472 4.403634 -3.337838 14.765211 -0.472511 -0.843025 -14.530118 0.350378 -0.278269 0.213104 -3.853749 -1.144207 -1.723529 0.000000 0.000000 0.000000 -18.850021 13.693259 0.460112 109.777275 44.487795 -64.359947 18.465257 -17.004973 32.183132 -14.710114 -34.440799 7.305791 0.000000 0.000000 0.000000 0.000000 0.000000 0.000000 4.992360 19.286193 -0.540712 -79.132520 -9.760799 7.829163 -73.443686 -25.586020 -76.937900 -76.860511 72.787260 163.876733 0.000000 0.000000 0.000000 0.000000 0.000000 0.000000 -5.139868 3.663076 -14.666590 0.421646 1.890476 0.317583 10.102681 -30.466557 -5.617333 0.000000 0.000000 0.000000 -4.661834 3.772459 -14.554487 -1.590174 2.179714 -0.162987 3.164359 -2.247940 -0.413879 0.000000 0.000000 0.000000
25.662191 74.072396 369.583169 4.490768 -3.469105 14.810704 -0.483384 -0.802520 -14.566941 0.353176 -0.241637 0.215155 -3.847404 -1.376114 -1.809652 0.000000 0.000000 0.000000 -19.005705 13.738669 0.480088 104.751387 45.017991 -60.073247 22.954226 -14.908628 32.792997 -20.434712 -31.848380 4.649416 0.000000 0.000000 0.000000 0.000000 0.000000 0.000000 5.310699 19.175005 -0.693922 -79.018160 -9.929490 7.788798 -68.760114 -18.652330 -61.097213 -95.040011 76.324783 -169.063768 0.000000 0.000000 0.000000 0.000000 0.000000 0.000000 -5.011842 3.855514 -14.680975 0.097356 2.037618 0.324831 9.014083 -26.393130 -2.109755 0.000000 0.000000 0.000000 -4.810064 3.931949 -14.574349 -1.420453 2.274453 -0.142837 3.588891 -5.153751 1.059592 0.000000 0.000000 0.000000
